<?xml version="1.0" encoding="utf-8"?>
<svg role="img" aria-label="home icon" version="1.1" id="Layer_1" xmlns="http://www.w3.org/2000/svg" xmlns:xlink="http://www.w3.org/1999/xlink" x="0px" y="0px" width="100px"
	 viewBox="0 0 512 252" enable-background="new 0 0 512 252" xml:space="preserve">
<g>
	<path fill="#2A2A2A" d="M267.9,138.9c-1.3,7.7-3,15.2-5.2,22.6c-2.8,9.2-6.8,17.8-13.1,25.1c-4.2,4.9-9.2,9.1-15.7,10.6
		c-8.7,2-17,0.9-24.1-5c-4.7-3.9-7.6-9.2-9.4-15c-2.3-7.6-2.9-15.4-2.9-23.3c0-15.4,0-30.9,0-46.3c0-4.5-0.2-8.9-1.5-13.2
		c-0.6-2-1.3-3.9-3.3-5c-0.8-0.4-0.4-1.2-0.4-1.8c0-0.8,0.7-0.4,1.1-0.4c6.2,0,12.5,0,18.7,0c1.1,0,1.4,0.2,1.4,1.3
		c0,22.5,0,45,0,67.6c0,1,0,2.1,0.1,3.1c0.4,6.7,0.9,13.3,3.2,19.7c1.3,3.8,3,7.4,5.9,10.4c3.8,3.8,10.2,5,15.2,2.9
		c6.4-2.6,10.8-7.5,14.7-13c5.4-7.8,8.3-16.6,10.5-25.6c2.5-10.1,3.9-20.3,4.5-30.6c0.4-7.3,0.8-14.6,0.2-22
		c-0.3-3.2-0.9-6.3-2.2-9.2c-0.4-0.9-1.1-1.7-2-2.2c-0.6-0.3-0.7-0.7-0.7-1.3c-0.1-0.9,0.2-1.2,1.1-1.1c0.2,0,0.4,0,0.7,0
		c5.8,0,11.6,0,17.4,0c1.8,0,1.8,0,1.8,1.8c0,8.9,0,17.7,0,26.6c0,20.5,0,41,0,61.5c0,4.3,0.1,8.6,1.3,12.8c0.3,1.1,0.7,2,1.2,3
		c0.5,0.9,1.1,1.7,2.1,2c0.5,0.1,0.5,0.4,0.6,0.8c0.1,1.1-0.2,1.5-1.4,1.5c-6.1-0.1-12.1-0.1-18.2,0c-1.1,0-1.4-0.2-1.4-1.4
		c0-18.5,0-36.9,0-55.4C267.9,139.9,267.9,139.4,267.9,138.9z"/>
	<path fill="#2B2B2B" d="M70.4,119.1c-3.3-2.8-6.9-4.7-10.9-5.7c-6.4-1.6-12.9-1.5-19.4-0.9c-2.1,0.2-4.3,0.4-6.3,0.9
		c-0.8,0.2-0.9-0.1-0.9-0.8c-0.1-2.8,0.9-5.3,2.3-7.6c3.3-5.4,8-9.4,13.5-12.5c12.2-6.7,25-7.6,38.1-3.8c9.5,2.8,16.2,9,20,18.2
		c2.8,6.7,3.7,13.8,4,20.9c0.4,11.6,0.1,23.2,0.2,34.8c0,6.6-0.1,13.3,0.1,19.9c0.1,3.2,0.5,6.4,1.8,9.4c0.6,1.3,1.3,2.6,2.8,3.1
		c0.9,0.3,0.3,1.1,0.4,1.7c0.1,0.6-0.5,0.5-0.8,0.5c-6.4,0-12.8,0-19.2,0c-1.1,0-0.9-0.6-0.9-1.2c0-11.1,0-22.2,0-33.3
		c0-11.7,0.1-23.4-0.1-35.1c-0.1-6.2-0.4-12.5-1.8-18.6c-1.2-5.4-3.1-10.4-6.8-14.7c-3.5-4.1-8-6-13.3-6.2c-8.1-0.3-15.8,1.4-22.6,6
		c-2.9,1.9-5.4,4.2-7,7.4c-1.9,3.9-0.6,6.7,3.6,7.7c3.4,0.8,6.9,1.3,10.4,1.9c9.2,1.6,15.8,6.8,20,15c4.8,9.3,6,19.2,5,29.4
		c-1.3,13.2-7.5,24.1-17.1,33c-4.3,4-9.2,7.2-15.1,8.5c-9.7,2.2-19,1-26.9-5.3c-8.4-6.6-11.7-15.7-11.2-26.3
		c0.3-7.3,2.5-14,6.2-20.1c3.6-5.8,8.2-10.7,13.8-14.6c10.1-7.1,21.4-10.4,33.5-11.2C67.4,119.5,68.9,119.5,70.4,119.1z M27.7,159.7
		c0.1,1,0.1,2,0.2,3c0.5,7.4,2.6,14.1,7.6,19.9c5.5,6.4,15.6,8.2,22.1,5.9c9.3-3.3,15.6-9.8,19.7-18.6c4.3-9.3,5.2-19.1,3.6-29.2
		c-1.1-7-3.7-13.4-8.2-19c-0.4-0.5-0.8-0.7-1.4-0.7c-6.7,0.2-13.3,1-19.6,3.3c-5.5,2-10.4,5-14.4,9.2
		C30.5,140.9,27.7,149.8,27.7,159.7z"/>
	<path fill="#2A2A2A" d="M179.4,32.5c0,0.6,0,1.1,0,1.7c0,47.4,0,94.8,0,142.2c0,4,0.1,7.9,0.8,11.9c0.3,1.7,0.9,3.4,1.8,4.9
		c0.4,0.8,0.9,1.5,1.8,1.8c1.1,0.3,0.8,1.2,0.8,1.9c0,0.9-0.8,0.5-1.2,0.5c-8,0-16,0-23.9,0c-0.4,0-1.2,0.4-1.2-0.5
		c0-0.6-0.4-1.5,0.7-1.8c1.2-0.4,1.7-1.4,2.2-2.5c1.7-4.1,2.3-8.3,2.3-12.7c0-42.3,0-84.6,0-126.9c0-2.6-0.7-5.1-1.7-7.5
		c-0.5-1.2-1.4-2.2-2.7-2.8c-0.3-0.1-0.4-0.3-0.6-0.6c-0.6-1.6-0.6-1.6,1-2.2c6.3-2.3,12.5-4.7,18.8-7
		C178.6,32.7,179,32.6,179.4,32.5z"/>
	<path fill="#2A2A2A" d="M145.2,32.5c0,0.7,0,1.2,0,1.7c0,47.6,0,95.1,0,142.7c0,4.4,0.1,8.7,1.3,13c0.6,2.1,1.2,4.3,3.6,5.3
		c0.7,0.3,0.3,1.1,0.3,1.7c0.1,0.7-0.5,0.4-0.9,0.4c-8.2,0-16.5,0-24.7,0c-0.3,0-0.9,0.2-0.8-0.4c0.1-0.6-0.5-1.4,0.4-1.7
		c1.5-0.5,2.2-1.8,2.7-3.2c1.5-3.8,2.1-7.8,2.1-11.9c0-9.4,0-18.8,0.1-28.3c0-32.8,0-65.6,0-98.4c0-2.7-0.7-5.3-1.7-7.7
		c-0.5-1.3-1.4-2.3-2.7-2.9c-0.3-0.1-0.5-0.3-0.6-0.6c-0.6-1.5-0.6-1.6,1-2.2c6.3-2.4,12.7-4.7,19-7.1
		C144.5,32.7,144.8,32.6,145.2,32.5z"/>
	<path fill="#2B2B2B" d="M499.7,123.5c-11.5,0.2-22.9,0.5-34.1,3.1c4.8-0.1,9.2,1.1,13.4,3.4c5.1,2.8,9,6.8,11.7,12
		c4.2,8,5.3,16.5,3.4,25.4c-1.1,5.3-3.7,9.9-7.3,14c-7.5,8.7-17.1,13.4-28.2,15.4c-10.3,1.9-20.5,1.2-30.4-2.2
		c-7.5-2.6-14.1-6.8-19.9-12.2c-6.4-5.8-10.6-13-13.4-21c-2.4-6.9-3.7-13.9-3.3-21.2c0.5-9.7,3.1-18.8,8.3-27.1
		c5.8-9.3,13.7-16.5,23.6-21.1c6.7-3.1,13.8-4.9,21.2-5.3c14.5-0.7,27.5,3.6,38.8,12.7c7.7,6.2,13.1,14.1,16.2,23.6
		C499.6,123.1,499.6,123.3,499.7,123.5z M406.7,140.6c0.6,4.6,1.2,9.1,2.5,13.5c3.3,11.7,8.8,21.9,18.5,29.6
		c10.7,8.4,22.6,11.5,35.9,8.6c9.8-2.1,18.1-6.8,24-15.2c3-4.2,5-8.8,5.5-14c0.8-8-0.9-15.5-5.2-22.4c-6-9.5-15-13-25.8-12.2
		c-5.2,0.4-10.1,2.3-14.6,5c-3.9,2.3-8,4.4-12.3,5.8C425.9,142.6,416.5,143.7,406.7,140.6z M482.1,122.3c-0.2-0.5-0.4-0.8-0.5-1.2
		c-2-4.2-4.2-8.2-7-11.9c-4.9-6.5-10.5-12.3-17.8-16.1c-5.7-3-11.7-4.6-18.2-3.9c-13.1,1.6-21.8,8.8-27.1,20.7
		c-3.9,8.8-5,18.2-4.8,27.7c0,0.7,0.3,1,0.9,1.3c6.1,2.5,12.3,2.4,18.6,1.2c7.3-1.3,13.9-4.2,20.2-7.8c8.5-4.8,17.7-7.5,27.3-9
		C476.4,122.9,479.2,122.6,482.1,122.3z"/>
	<path fill="#2A2A2A" d="M358.9,128.5c-0.3-1.3,0-2.1,0.9-3c2.2-2,2.6-4.8,3-7.6c0.7-4.4-0.5-8.6-1.5-12.8c-0.8-3.1-2-6-4.1-8.5
		c-2.5-2.9-5.6-4.5-9.5-4.8c-3.6-0.3-7.1-0.6-10.7,0.1c-7.7,1.5-13,6.1-16.1,13.3c-2.4,5.7-3.4,11.8-3.4,18c-0.1,18.1,0,36.1,0,54.2
		c0,3.9,0.1,7.9,1.1,11.7c0.4,1.6,0.9,3.1,1.9,4.4c0.4,0.6,0.9,1.1,1.6,1.3c0.6,0.2,0.7,0.5,0.7,1c0.1,1-0.2,1.3-1.3,1.3
		c-8,0-16,0-24.1,0c-0.4,0-1.2,0.4-1.1-0.5c0-0.6-0.4-1.5,0.8-1.7c1.1-0.2,1.8-1.2,2.2-2.2c1.3-3,2-6.2,2.2-9.5
		c0.2-2.3,0.3-4.6,0.3-6.9c0-22.9,0-45.7,0-68.6c0-4.5-0.1-9-1.5-13.3c-0.6-2-1.2-4.1-3.6-5c-0.8-0.3-0.3-1.1-0.4-1.6
		c-0.1-0.7,0.6-0.5,1-0.5c6.4,0,12.8,0,19.2,0c0.9,0,1.1,0.3,1,1.1c0,6.1,0,12.2,0,18.3c0,0.5,0,1,0,1.4c0.8-2.1,1.5-4.2,2.4-6.2
		c3.3-7.4,9.1-11.9,16.8-14c7.9-2.2,15.9-2.3,23.8-0.1c4.9,1.3,8.9,4.3,12.1,8.3c3.4,4.3,5.1,9.4,6.3,14.6c0.4,1.9,0.9,3.8,2.2,5.4
		c0.3,0.4,0.7,0.9,1.2,0.9c0.8,0,0.9,0.5,1.1,1c0.2,0.6,0.3,0.9-0.5,1.2C374.9,122.3,367,125.4,358.9,128.5z"/>
	<path fill="#2B2B2B" d="M264,226.6c0-2.4,0-4.8,0-7.2c0-1.6,0.4-2,2-2c1.6,0,3.1,0.1,4.7,0c5.9-0.3,8.4,3.5,8.9,8
		c0.2,1.7,0,3.3-0.5,4.9c-1.1,3.6-3.7,5.6-7.4,5.6c-1.9,0-3.8,0-5.8,0c-1.5,0-1.9-0.4-1.9-1.8C264,231.6,264,229.1,264,226.6z
		 M266.6,226.6c0,2,0,3.9,0,5.9c0,0.7,0.2,1,0.9,1c1.3-0.1,2.7,0,4,0c2-0.1,3.6-0.9,4.5-2.8c1.2-2.6,1.2-5.3,0-8
		c-0.8-1.8-2.2-2.8-4.2-2.8c-1.4,0-2.9,0-4.3-0.1c-0.9,0-1,0.3-1,1.1C266.7,222.8,266.6,224.7,266.6,226.6z"/>
	<path fill="#2B2B2B" d="M313,236.2c-5.1,0-9-4.1-9-9.5c0-5.4,3.9-9.6,9-9.5c5,0,8.9,4.1,8.9,9.5C322,232,318.1,236.1,313,236.2z
		 M306.8,226.6c0,3.6,2.2,6.5,5.1,6.9c3.4,0.5,6-1.4,7-4.9c1-3.6-0.8-7.5-3.8-8.7C310.9,218.4,306.8,221.7,306.8,226.6z"/>
	<path fill="#2B2B2B" d="M196.3,236.2c-2.2,0-4.1-0.7-5.8-2.1c-0.7-0.6-1.1-1.2-0.5-2c0.7-0.8,1.4-0.5,2,0.1c2,1.7,4.3,2.1,6.7,1.1
		c0.9-0.4,1.5-1,1.6-2c0.1-1.1-0.5-1.9-1.4-2.4c-1.1-0.6-2.3-0.8-3.4-1.2c-0.7-0.2-1.4-0.3-2-0.6c-2.2-0.9-3.4-2.6-3.3-4.7
		c0.1-2.3,1.5-4,3.8-4.7c2.8-0.8,5.3-0.5,7.7,1.3c0.7,0.5,1.3,1.2,0.6,2.1c-0.6,0.8-1.3,0.4-2-0.1c-1.9-1.3-3.9-1.6-6.1-0.7
		c-0.9,0.4-1.5,1.1-1.5,2.1c0,1,0.5,1.7,1.4,2.2c1.1,0.6,2.3,0.8,3.5,1.1c0.7,0.2,1.3,0.4,2,0.6c2.4,0.9,3.4,2.4,3.4,4.8
		c0,2-1.4,3.8-3.5,4.6C198.5,236,197.4,236.2,196.3,236.2z"/>
	<path fill="#2B2B2B" d="M237.8,224.1c0-1.7,0-3.3,0-5c0-0.9,0.2-1.8,1.3-1.8c1.1,0,1.4,0.8,1.4,1.8c0,3.3,0,6.6,0,9.9
		c0,1.9,1.1,3.3,2.8,4c1.7,0.7,3.3,0.4,4.8-0.8c0.9-0.8,1.5-1.8,1.6-3c0.1-3.3,0.1-6.5,0.1-9.8c0-0.9-0.2-2.2,1.2-2.2
		c1.4,0,1.2,1.2,1.2,2.2c0,3,0.1,6,0,9c-0.1,5.1-3.9,8.2-8.7,7.3c-3.1-0.6-5.4-3.3-5.6-6.6C237.7,227.6,237.8,225.9,237.8,224.1
		C237.8,224.1,237.8,224.1,237.8,224.1z"/>
	<path fill="#2B2B2B" d="M218.5,227.4c0-2.2,0-4.4,0-6.7c0-0.8-0.2-1-1-0.9c-1.2,0.1-2.4,0-3.5,0c-0.8,0-1.4-0.3-1.4-1.2
		c0-0.9,0.6-1.2,1.4-1.2c3.9,0,7.8,0,11.8,0c0.8,0,1.4,0.3,1.4,1.2c0,0.9-0.6,1.2-1.4,1.2c-1.1,0-2.3,0.1-3.4,0
		c-0.9-0.1-1.2,0.3-1.2,1.2c0,4.3,0,8.5,0,12.8c0,0.5,0.1,1.1-0.2,1.5c-0.3,0.5-0.9,0.7-1.5,0.5c-0.7-0.2-1-0.8-1-1.5
		C218.5,232,218.5,229.7,218.5,227.4z"/>
	<path fill="#2B2B2B" d="M290.6,226.6c0-2.5,0-5,0-7.4c0-0.9,0.2-1.7,1.3-1.8c1,0,1.4,0.8,1.4,1.7c0,5,0,10,0,15
		c0,0.9-0.3,1.7-1.3,1.7c-1.1,0-1.3-0.8-1.3-1.7C290.6,231.6,290.6,229.1,290.6,226.6z"/>
</g>
</svg>
